<svg xmlns="http://www.w3.org/2000/svg" width="725" height="257" viewBox="0 0 725 257"><g><g><path fill="#fff" d="M724.083 200.796h-40.37v52.057h-55.954v-52.057H494.252v-38.6L611.115 4.015l27.693.435h44.904v149.6h40.371zM629.53 62.454l-66.576 91.597h66.576zm-222.748 66.453c0-56.306-19.831-79.68-48.516-79.68-28.33 0-48.162 23.374-48.162 79.68 0 56.307 19.832 79.68 48.162 79.68 28.685 0 48.516-23.373 48.516-79.68zm-154.755 0C252.027 47.103 297.356.712 358.266.712c61.265 0 106.24 46.391 106.24 128.195s-44.975 128.196-106.24 128.196c-60.91 0-106.24-46.391-106.24-128.196zm-21.602 71.889h-40.371v52.057H134.1v-52.057H.594v-38.6L117.457 4.015l27.693.435h44.904v149.6h40.37zM135.872 62.453l-66.577 91.598h66.577z"/></g></g></svg>