<svg xmlns="http://www.w3.org/2000/svg" width="30" height="32" viewBox="0 0 30 32"><defs><clipPath id="1rhpa"><path fill="#fff" d="M15 32c-8.284 0-15 .851-15-5.5 0-4.776 3.8-8.874 9.208-10.611a9 9 0 1 1 11.584 0c5.408 1.737 9.207 5.835 9.207 10.611 0 5.01-4.178 5.539-10.008 5.539C18.43 32.039 16.75 32 15 32z"/></clipPath></defs><g><g opacity="1"><path fill="none" stroke="#fff" stroke-miterlimit="20" stroke-width="6" d="M15 32c-8.284 0-15 .851-15-5.5 0-4.776 3.8-8.874 9.208-10.611a9 9 0 1 1 11.584 0c5.408 1.737 9.207 5.835 9.207 10.611 0 5.01-4.178 5.539-10.008 5.539C18.43 32.039 16.75 32 15 32z" clip-path="url(&quot;#1rhpa&quot;)"/></g></g></svg>