<svg xmlns="http://www.w3.org/2000/svg" width="58" height="58" viewBox="0 0 58 58"><g><g><path fill="#fc8b2b" d="M20.475 31.812a1.798 1.798 0 0 0 2.56 0L46.597 8.227a1.819 1.819 0 0 0 0-2.56L41.477.535a1.798 1.798 0 0 0-2.56 0L21.755 17.697l-6.276-6.287a1.798 1.798 0 0 0-2.56 0l-5.131 5.132a1.819 1.819 0 0 0 0 2.56zm36.736-12.008l-4.486-4.486a2.707 2.707 0 0 0-3.84 0l-27.13 27.13-12.62-12.63a2.707 2.707 0 0 0-3.84 0L.8 34.315a2.721 2.721 0 0 0 0 3.852l19.03 19.042a2.707 2.707 0 0 0 3.84 0L57.2 23.656c1.066-1.077 1.066-2.798.012-3.852z"/></g></g></svg>