<svg xmlns="http://www.w3.org/2000/svg" width="72" height="72" viewBox="0 0 72 72"><g><g><g><path fill="#fc8b2b" d="M14.537 57.665c-2.171-2.171-3.167-4.798-3.838-6.453-.372-.924-1.572-1.14-2.22-.396l-5.697 6.537c-.348.396-.108 1.02.42 1.092l3.059.42a.671.671 0 0 1 .563.803l-1.391 6.31c-.108.467.324.9.792.791l6.309-1.391a.671.671 0 0 1 .804.563l.42 3.06c.071.527.695.767 1.09.419l6.538-5.698c.744-.647.54-1.859-.396-2.219-1.667-.683-4.282-1.667-6.453-3.838z"/></g><g><path fill="#fc8b2b" d="M47.024 25.298c-2.039-2.04-1.659-5.706.846-8.21 2.505-2.506 6.184-2.874 8.21-.847 2.04 2.04 1.66 5.706-.845 8.211s-6.172 2.885-8.21.846zm2.63 31.243l1.191-12.706C73.203 21.477 71.93.392 71.93.392S50.737-.989 28.379 21.37l-12.706 1.19c-.47.04-.949.325-1.268.741L.79 41.328c-.699.914-.351 2.054.651 2.18l14.473 1.624s-.347 5.313 2.82 8.48c3.166 3.166 8.36 2.699 8.36 2.699l1.624 14.473c.113.99 1.253 1.338 2.18.651l18.053-13.616c.392-.344.664-.807.703-1.278z"/></g></g></g></svg>