<svg xmlns="http://www.w3.org/2000/svg" width="197" height="32" viewBox="0 0 197 32"><defs><clipPath id="n3xea"><path fill="#fff" d="M39 32V1h31v31z"/></clipPath><clipPath id="n3xeb"><path fill="#fff" d="M69.802 1h19.13c5.81 0 10.52 4.925 10.52 11v9c0 6.075-4.71 11-10.52 11h-19.13c-5.81 0-4.103-4.075-4.103-10.15V7.986C65.699 1.91 63.992 1 69.802 1z"/></clipPath></defs><g><g><g opacity="-1"><g><text dominant-baseline="text-before-edge" style="line-height:56px;font-kerning:normal" fill="#fff" font-family="'Montserrat','Montserrat-Bold'" font-size="43" font-style="none" font-weight="700" letter-spacing=".9" transform="translate(106 -11)"><tspan>SCP</tspan></text></g></g><g opacity="-1"><path fill="none" stroke="#fff" stroke-miterlimit="20" stroke-width="12" d="M39 32v0V1v0h31v31z" clip-path="url(&quot;#n3xea&quot;)"/></g><g opacity="-1"><path fill="none" stroke="#fff" stroke-miterlimit="20" stroke-width="12" d="M69.802 1h19.13c5.81 0 10.52 4.925 10.52 11v9c0 6.075-4.71 11-10.52 11h-19.13c-5.81 0-4.103-4.075-4.103-10.15V7.986C65.699 1.91 63.992 1 69.802 1z" clip-path="url(&quot;#n3xeb&quot;)"/></g><g opacity="-1"><g><text dominant-baseline="text-before-edge" style="line-height:56px;font-kerning:normal" fill="#fff" font-family="'Montserrat','Montserrat-Bold'" font-size="43" font-style="none" font-weight="700" letter-spacing=".9" transform="translate(-2 -11)"><tspan>O</tspan></text></g></g></g></g></svg>