<svg xmlns="http://www.w3.org/2000/svg" width="32" height="32" viewBox="0 0 32 32"><g><g><g><path fill="none" stroke="#717682" stroke-linecap="round" stroke-linejoin="round" stroke-miterlimit="20" stroke-width="1.5" d="M18.636 18.782c-1.02 1.054-2.555 1.488-4.005 1.131-1.45-.356-2.581-1.445-2.951-2.84-.37-1.396.08-2.874 1.174-3.856m14.946 6.97A24.253 24.253 0 0 0 30.745 16s-5.454-10.5-15-10.5a12.9 12.9 0 0 0-2.863.315M7.645 8.204A24.488 24.488 0 0 0 .745 16s5.455 10.5 15 10.5a14.077 14.077 0 0 0 8.1-2.704"/></g><g><path fill="none" stroke="#717682" stroke-linecap="round" stroke-linejoin="round" stroke-miterlimit="20" stroke-width="1.5" d="M.745 1l30 30"/></g></g></g></svg>