<svg xmlns="http://www.w3.org/2000/svg" width="2133" height="1113" viewBox="0 0 2133 1113"><defs><mask id="c42nb" width="2" height="2" x="-1" y="-1"><path fill="#fff" d="M17 78h2084v996H17z"/><path d="M16.964 1059.334c202.652-86.3 626.846 9.437 888.003 14.322 4.44.083 370.124-3.923 627.157-74.157 261.478-71.45 463.428 51.28 548.06 62.996 4.061.563 33.6-813.356 13.476-984.005L51.785 79.695z"/></mask><filter id="c42na" width="2144" height="1061" x="-13" y="48" filterUnits="userSpaceOnUse"><feOffset dy="5" in="SourceGraphic" result="FeOffset1025Out"/><feGaussianBlur in="FeOffset1025Out" result="FeGaussianBlur1026Out" stdDeviation="8 8"/></filter><mask id="c42nd" width="2" height="2" x="-1" y="-1"><path fill="#fff" d="M42 8h2078v1089H42z"/><path d="M58.684 1096.197c197.858-96.788 626.48-23.383 887.535-32.173 4.438-.149 369.412-23.288 622.417-106.879 257.38-85.036 465.476 26.958 550.605 34.228 4.086.349-9.013-814-38.04-983.363L42.186 116.077z"/></mask><filter id="c42nc" width="2128" height="1144" x="17" y="-17" filterUnits="userSpaceOnUse"><feOffset dy="5" in="SourceGraphic" result="FeOffset1041Out"/><feGaussianBlur in="FeOffset1041Out" result="FeGaussianBlur1042Out" stdDeviation="6 6"/></filter></defs><g><g><g opacity="1"><g filter="url(#c42na)"><path fill="none" d="M16.964 1059.334c202.652-86.3 626.846 9.437 888.003 14.322 4.44.083 370.124-3.923 627.157-74.157 261.478-71.45 463.428 51.28 548.06 62.996 4.061.563 33.6-813.356 13.476-984.005L51.785 79.695z" mask="url(&quot;#c42nb&quot;)"/><path fill="#191919" fill-opacity=".64" d="M16.964 1059.334c202.652-86.3 626.846 9.437 888.003 14.322 4.44.083 370.124-3.923 627.157-74.157 261.478-71.45 463.428 51.28 548.06 62.996 4.061.563 33.6-813.356 13.476-984.005L51.785 79.695z"/></g><path fill="#363d48" d="M16.964 1059.334c202.652-86.3 626.846 9.437 888.003 14.322 4.44.083 370.124-3.923 627.157-74.157 261.478-71.45 463.428 51.28 548.06 62.996 4.061.563 33.6-813.356 13.476-984.005L51.785 79.695z"/></g><g opacity="1"><g filter="url(#c42nc)"><path fill="none" d="M58.684 1096.197c197.858-96.788 626.48-23.383 887.535-32.173 4.438-.149 369.412-23.288 622.417-106.879 257.38-85.036 465.476 26.958 550.605 34.228 4.086.349-9.013-814-38.04-983.363L42.186 116.077z" mask="url(&quot;#c42nd&quot;)"/><path fill="#1c1c1c" fill-opacity=".6" d="M58.684 1096.197c197.858-96.788 626.48-23.383 887.535-32.173 4.438-.149 369.412-23.288 622.417-106.879 257.38-85.036 465.476 26.958 550.605 34.228 4.086.349-9.013-814-38.04-983.363L42.186 116.077z"/></g><path fill="#1f232c" d="M58.684 1096.197c197.858-96.788 626.48-23.383 887.535-32.173 4.438-.149 369.412-23.288 622.417-106.879 257.38-85.036 465.476 26.958 550.605 34.228 4.086.349-9.013-814-38.04-983.363L42.186 116.077z"/></g><g opacity="1"><path fill="#262c37" d="M16.964 1029.334c202.652-86.3 626.846 9.437 888.003 14.322 4.44.083 370.124-3.923 627.157-74.157 261.478-71.45 463.428 51.28 548.06 62.996 4.061.563 33.6-813.356 13.476-984.005L51.785 49.695z"/></g></g></g></svg>