<svg xmlns="http://www.w3.org/2000/svg" width="45" height="45" viewBox="0 0 45 45"><defs><linearGradient id="bqv2a" x1="3.85" x2="31.69" y1="1.04" y2="27.98" gradientUnits="userSpaceOnUse"><stop offset="0" stop-color="#fff"/><stop offset="1" stop-color="#6f6f6f" stop-opacity=".82"/></linearGradient></defs><g><g><path fill="url(#bqv2a)" d="M4.454 9.016c-7.373 10.148-5.567 24.266 4.4 31.507 9.966 7.241 24.153 5.863 31.526-4.285 3.686-5.075 5.627-12.182 4.263-17.919l-5.675.952c.637 4.268-.337 8.847-3.152 12.721-5.563 7.658-16.125 9.428-23.645 3.965-7.52-5.464-9.1-16.056-3.536-23.713 2.782-3.829 6.825-5.965 11.127-6.646l-.23-5.323c-6.086.824-11.42 3.858-15.112 8.787z"/></g></g></svg>