<svg width="19" height="11" xmlns="http://www.w3.org/2000/svg">

 <g>
  <title>background</title>
  <rect fill="none" id="canvas_background" height="13" width="21" y="-1" x="-1"/>
 </g>
 <g>
  <title>Layer 1</title>
  <g id="svg_1">
   <g id="svg_2">
    <path id="svg_3" d="m4.769,10.784l-4.563,-4.794a0.764,0.764 0 0 1 0,-1.043l0.992,-1.043a0.678,0.678 0 0 1 0.993,0l3.074,3.23l6.584,-6.919a0.678,0.678 0 0 1 0.992,0l0.993,1.043a0.764,0.764 0 0 1 0,1.043l-8.073,8.482a0.678,0.678 0 0 1 -0.992,0l0,0.001z" fill="#fe8300"/>
   </g>
  </g>
  <g id="svg_6">
   <g id="svg_5">
    <path id="svg_4" d="m9.707704,10.819026l-4.563,-4.794a0.764,0.764 0 0 1 0,-1.043l0.992,-1.043a0.678,0.678 0 0 1 0.993,0l3.074,3.23l6.584,-6.919a0.678,0.678 0 0 1 0.992,0l0.993,1.043a0.764,0.764 0 0 1 0,1.043l-8.073,8.482a0.678,0.678 0 0 1 -0.992,0l0,0.001z" fill="#fe8300"/>
   </g>
  </g>
 </g>
</svg>